<?xml version="1.0" encoding="utf-8"?>
<!-- Generator: Adobe Illustrator 16.0.0, SVG Export Plug-In . SVG Version: 6.00 Build 0)  -->
<!DOCTYPE svg PUBLIC "-//W3C//DTD SVG 1.1//EN" "http://www.w3.org/Graphics/SVG/1.1/DTD/svg11.dtd">
<svg version="1.1" id="Camada_1" xmlns="http://www.w3.org/2000/svg" xmlns:xlink="http://www.w3.org/1999/xlink" x="0px" y="0px"
	 width="24px" height="24px" viewBox="0 0 24 24" enable-background="new 0 0 24 24" xml:space="preserve">
<path fill="#FFFFFF" d="M21.23,0H2.769C1.24,0,0,1.24,0,2.769v18.459C0,22.76,1.24,24,2.769,24h18.463C22.762,24,24,22.76,24,21.229
	V2.769C24,1.24,22.762,0,21.23,0z M12,7.385c2.549,0,4.616,2.065,4.616,4.615c0,2.549-2.067,4.616-4.616,4.616
	S7.385,14.548,7.385,12C7.385,9.45,9.451,7.385,12,7.385z M21,20.078C21,20.587,20.587,21,20.076,21H3.924
	C3.413,21,3,20.587,3,20.078V10h1.897c-0.088,0.315-0.153,0.64-0.2,0.971C4.647,11.308,4.616,11.65,4.616,12
	c0,4.079,3.306,7.385,7.384,7.385s7.384-3.306,7.384-7.385c0-0.35-0.03-0.692-0.081-1.028c-0.047-0.331-0.111-0.656-0.199-0.971H21
	V20.078z M21,6.098c0,0.509-0.413,0.923-0.924,0.923h-2.174c-0.512,0-0.924-0.414-0.924-0.923V3.923c0-0.51,0.412-0.923,0.924-0.923
	h2.174C20.587,3,21,3.413,21,3.923V6.098z"/>
</svg>
