<?xml version="1.0" encoding="utf-8"?>
<!-- Generator: Adobe Illustrator 16.0.0, SVG Export Plug-In . SVG Version: 6.00 Build 0)  -->
<!DOCTYPE svg PUBLIC "-//W3C//DTD SVG 1.1//EN" "http://www.w3.org/Graphics/SVG/1.1/DTD/svg11.dtd">
<svg version="1.1" id="Camada_1" xmlns="http://www.w3.org/2000/svg" xmlns:xlink="http://www.w3.org/1999/xlink" x="0px" y="0px"
	 width="24px" height="24px" viewBox="0 0 24 24" enable-background="new 0 0 24 24" xml:space="preserve">
<path fill="#FFFFFF" d="M7.472,23.954c-0.917-0.395-1.874-0.729-0.973-4.669c0.273-1.173,1.761-7.463,1.761-7.463
	s-0.45-0.899-0.45-2.229c0-2.086,1.211-3.645,2.717-3.645c1.279,0,1.898,0.961,1.898,2.114c0,1.287-0.819,3.213-1.243,4.998
	c-0.354,1.494,0.749,2.713,2.224,2.713c2.668,0,4.719-2.813,4.719-6.874c0-3.594-2.583-6.108-6.271-6.108
	c-4.271,0-6.779,3.204-6.779,6.515c0,1.29,0.498,2.675,1.118,3.425c0.123,0.149,0.151,0.291,0.43,0.71S6.6,14.488,6.6,14.488
	c-0.066,0.274-0.674,1.046-1.565,0.392C2.927,13.581,2.33,11.45,2.33,9.249c0-4.736,3.44-9.085,9.919-9.085
	c5.208,0,9.257,3.711,9.257,8.671c0,5.174-3.261,9.337-7.792,9.337c-1.52,0-2.95-0.788-3.44-1.723l-0.936,3.568
	C8.999,21.322,8.646,23.771,7.472,23.954"/>
</svg>
